<?xml version="1.0" encoding="iso-8859-1"?>
<!-- Uploaded to: SVG Repo, www.svgrepo.com, Generator: SVG Repo Mixer Tools -->
<svg fill="#000000" height="800px" width="800px" version="1.1" id="Layer_1" xmlns="http://www.w3.org/2000/svg" xmlns:xlink="http://www.w3.org/1999/xlink" 
	 viewBox="0 0 512.273 512.273" xml:space="preserve">
<g>
	<g>
		<path d="M504.787,260.166c-2.155-6.333-4.367-11.427-6.273-15.16l7.425-7.611c3.887-3.985,6.063-9.331,6.063-14.898V106.807
			c0-5.658-2.248-11.084-6.248-15.085L420.42,6.388c-4.001-4.001-9.427-6.248-15.085-6.248H290.797
			c-5.539,0-10.862,2.155-14.841,6.008L231.74,48.967c-54.852-3.434-109.986,8.107-163.283,30.54
			c-15.87,6.68-30.236,13.845-42.878,21.038c-7.719,4.392-13.249,7.89-16.363,10.039c-9.696,6.694-12.13,19.98-5.436,29.676
			c6.694,9.696,19.98,12.13,29.676,5.436c2.131-1.471,6.621-4.311,13.223-8.067c11.227-6.387,24.088-12.802,38.331-18.797
			c33.607-14.146,67.806-23.385,101.954-26.504L58.633,216.601c-1.605,1.554-2.913,3.298-3.923,5.162L6.444,268.802
			c-8.509,8.292-8.604,21.938-0.211,30.347l206.293,206.72c8.387,8.404,22.021,8.344,30.333-0.133l47.802-48.75
			c1.564-0.931,3.044-2.055,4.376-3.42l39.09-40.067c1.462,0.745,2.946,1.468,4.458,2.161
			c44.056,20.185,101.862,12.167,132.135-18.093c5.414-5.416,10.281-10.998,14.614-16.74
			C515.141,341.336,517.934,298.81,504.787,260.166z M299.433,42.807h97.066l72.837,72.837v98.171L330.684,355.93
			c-13.83-19.658-17.268-49.436-6.883-90.214c2.908-11.418-3.991-23.031-15.409-25.938c-11.418-2.908-23.031,3.991-25.938,15.409
			c-14.287,56.105-6.721,101.397,18.112,131.614l-20.967,21.491L103.874,232.184L247.144,93.444
			c29.872,3.987,59.41,13.292,88.174,28.761c12.2,6.561,24.166,14.213,35.885,23.002c9.426,7.069,22.797,5.159,29.867-4.267
			c7.069-9.426,5.159-22.797-4.267-29.867c-13.421-10.066-27.189-18.87-41.276-26.446c-23.314-12.538-46.992-21.596-70.855-27.525
			L299.433,42.807z M227.493,460.466L51.683,284.291l22.259-21.693l175.303,175.684L227.493,460.466z M451.28,355.123
			c-3.135,4.154-6.703,8.247-10.728,12.273c-15.227,15.219-47.37,21.136-74.284,13.16L465.836,278.5
			C473.086,303.516,470.354,329.851,451.28,355.123z"/>
	</g>
</g>
</svg>