<svg xmlns="http://www.w3.org/2000/svg" width="457" height="431" fill="none"><path d="M235.313 360.584c88.474 0 160.376-71.902 160.376-160.372 0-88.469-71.902-160.372-160.376-160.372-88.798 0-160.372 71.573-160.372 160.372 0 88.47 71.574 160.372 160.372 160.372Z" fill="#EAEEF9"/><path d="M134.405 156.373h193.86c7.258 0 13.794 6.172 13.794 13.797v122.341c0 7.259-6.172 13.794-13.794 13.794h-193.86c-7.258 0-13.793-6.172-13.793-13.794V170.17c0-7.625 6.535-13.797 13.793-13.797Z" fill="url(#icons-empty_svg__a)"/><path d="M421.864 160.12c4.971-4.638 5.304-12.26.665-17.232-4.639-4.968-12.261-5.3-17.233-.662-4.967 4.64-5.3 12.261-.661 17.229 4.306 4.639 12.261 5.305 17.229.665ZM422.527 105.447c1.989-1.988 2.322-5.3.333-7.29-1.989-1.988-5.301-2.32-7.289-.332-1.989 1.989-2.322 5.301-.333 7.289 1.989 2.322 5.304 2.322 7.289.333ZM292.311 30.233c1.323-1.327 1.655-3.645.329-4.972-1.323-1.327-3.645-1.656-4.968-.332-1.327 1.327-1.656 3.644-.333 4.971 1.327 1.324 3.645 1.656 4.972.333Z" fill="#EAEEF9"/><g filter="url(#icons-empty_svg__b)"><path d="m412.488 91.753-48.283 86.039c-1.817 2.904-5.445 3.995-7.988 2.178l-82.769-48.283c-2.907-1.814-3.994-5.445-2.18-7.986l63.529-109.634c1.817-2.904 5.449-3.995 7.989-2.18l59.899 34.851 9.803 45.015Z" fill="#F2F6FA"/></g><path d="m402.685 46.738-13.793 23.233c-1.817 3.63-.727 7.262 2.541 9.439l20.692 11.98" fill="#D5DAE6"/><path d="M345.692 69.247c1.449-.363 2.904-.363 3.994-.363h4.354c1.454.363 3.268.723 4.721 1.087 1.814.727 3.268 1.454 4.718 2.18 2.178 1.087 3.995 2.541 5.445 4.355 1.453 1.454 2.544 3.267 3.267 5.445.728 1.817.728 3.994.728 5.808-.364 2.18-1.091 4.357-2.178 6.171-1.09 1.817-2.18 3.268-3.631 4.721-1.453 1.09-2.54 1.814-4.358 2.541-1.45.727-2.904 1.091-4.354 1.091l-3.995.363c-1.089 0-2.177.36-3.631.723-1.087.363-1.813.727-2.54 1.454l-3.994 5.082-6.532-3.631 2.904-6.532c.36-1.09 1.45-2.18 2.177-2.904 1.091-.727 2.178-1.09 3.267-1.453 1.451-.364 2.542-.365 3.995-.728 1.45 0 2.905-.363 4.354-.727 1.454-.36 2.541-.723 3.995-1.45 1.45-.727 2.177-1.814 2.904-3.268.364-.727.727-1.813 1.087-2.904 0-1.09 0-1.813-.36-2.54-.363-1.09-.727-1.817-1.454-2.54-.727-.728-1.45-1.455-2.541-2.181-1.09-.724-2.54-1.45-3.994-1.814-1.086-.364-2.177-.364-3.268-.364h-2.54c-.363 0-1.091 0-1.451-.363-.727-.364-1.453-1.45-1.453-2.177l.364-5.082Zm-18.516 47.919c.364-.727 1.091-1.454 1.815-2.177.727-.363 1.453-1.09 2.18-1.09 1.814-.364 3.631-.364 5.081.727.727.364 1.454 1.086 2.177 1.813.364.727.727 1.454 1.091 2.178 1.09 3.631-1.091 6.898-4.718 7.989-1.817.362-3.631 0-5.084-.727-.727-.364-1.451-1.091-2.178-1.814-.364-.727-1.091-1.454-1.091-2.181-.363-.723-.363-1.814 0-2.541 0-.726.364-1.45.727-2.177Z" fill="#CED6E2"/><g filter="url(#icons-empty_svg__c)"><path d="m102.098 54.364 55.181 57.721c1.814 2.178 1.814 5.082-.364 6.896l-56.27 53.366c-2.177 1.814-5.081 1.814-6.899-.363L23.318 97.561c-1.814-2.177-1.814-5.081.363-6.895l41.024-38.483 37.393 2.18Z" fill="#F2F6FA"/></g><path d="M64.34 51.456 79.589 67.43c2.177 2.177 5.808 2.177 7.989 0L101.734 54" fill="#D5DAE6"/><path d="M68.7 101.192c0-1.087.363-2.177.723-3.267l1.09-3.267c.363-1.087 1.09-2.178 1.814-3.269.727-1.086 1.817-2.176 2.904-3.263 1.454-1.454 2.907-2.544 4.721-3.268 1.45-.727 3.268-1.09 4.718-1.09 1.454 0 3.267.363 4.721.727 1.45.723 2.904 1.813 4.354 2.904 1.091 1.087 2.182 2.54 2.544 3.99.36 1.091.724 2.545 1.087 3.996v3.63c-.363 1.09-.363 2.177-.727 3.268 0 1.09-.36 1.813-.36 2.904 0 .727 0 1.45.724 2.177l2.904 4.358-4.354 3.994-4.358-3.994c-.724-.727-1.45-1.454-1.814-2.541-.363-1.09-.363-1.816-.363-2.904 0-1.09.363-2.181.363-3.267.363-1.091.363-2.181.363-3.268 0-1.09 0-2.18-.363-3.267-.363-1.091-1.09-2.177-1.817-3.268-.36-.727-1.087-1.09-1.814-1.454-.727-.364-1.45-.364-2.177-.364-.727 0-1.454.364-2.18.728-.724.363-1.451.727-2.178 1.454-.727.726-1.45 1.813-2.177 2.54-.364.727-.727 1.45-1.09 2.54-.364.727-.364 1.454-.364 1.814 0 .364-.36.727-.723 1.091-.364.727-1.454.727-2.18.363l-3.992-.727Zm33.398 25.414c-.364-.364-.727-1.091-1.091-1.814-.363-.727-.363-1.454-.363-2.18 0-1.451.727-2.905 1.817-3.991.36-.364 1.087-.727 1.814-1.091.727-.363 1.454-.363 2.177-.363 2.18 0 4.358 1.454 5.085 3.63.36.728.36 1.451.36 2.178 0 .726-.36 1.453-.36 2.177-.363.727-.727 1.09-1.454 1.818-.363.362-1.091 1.086-1.814 1.086-1.453.363-2.904.363-3.994 0-1.09-.36-1.814-.724-2.177-1.45Z" fill="#CED6E2"/><g filter="url(#icons-empty_svg__d)"><path d="m246.222 145.12-21.418 76.6c-.727 2.54-3.632 4.354-6.172 3.267l-74.422-21.781c-2.541-.728-4.358-3.631-3.268-6.173l29.041-98.744c.727-2.542 3.63-4.355 6.172-3.268l54.093 15.974 15.974 34.125Z" fill="#F2F6FA"/></g><path d="m230.255 111.128-6.905 21.649c-.727 2.904 1.09 6.172 3.994 6.898l19.146 5.411" fill="#D5DAE6"/><path d="M189.224 140.399c1.089-.36 2.18-.724 3.267-1.087 1.09-.364 2.177-.726 3.631-.726h3.994c1.451 0 2.904.362 4.355.726 1.816.363 3.631 1.45 5.084 2.541 1.45 1.091 2.541 2.177 3.628 3.631.726 1.451 1.453 2.904 1.817 4.354.363 1.817 0 3.631-.364 5.085-.363 1.45-1.089 2.904-2.176 4.354a11.07 11.07 0 0 1-2.905 2.905c-1.09.727-2.181 1.453-3.268 1.816l-3.267 1.087c-.727.364-1.817.727-2.54 1.091-.727.363-1.454 1.09-1.454 1.813l-2.177 4.722-5.809-2.541 1.087-5.808c0-1.09.727-1.817 1.454-2.544.727-.724 1.45-1.451 2.541-1.814 1.09-.364 2.177-.726 2.904-1.09 1.09-.363 2.177-.723 3.267-1.45 1.091-.364 1.814-1.091 2.905-1.817.726-.724 1.453-1.814 1.813-3.268v-1.814c0-.727-.36-1.45-.724-2.177-.363-.727-1.089-1.091-1.816-1.817-.727-.36-1.451-.724-2.542-1.087-1.089-.364-2.176-.364-3.63-.364-.727 0-1.814 0-2.541.364-.727 0-1.45.363-1.814.363-.363 0-.726.364-1.453 0-.727 0-1.451-.727-1.451-1.454l-1.816-3.994Zm-5.445 41.751c.363-.727.363-1.454 1.09-1.818.363-.722 1.086-1.087 1.45-1.449 1.454-.727 2.905-.727 3.994-.364.727.364 1.451.726 1.814 1.09.364.36 1.091 1.087 1.454 1.45 1.45 2.541.363 5.809-2.177 6.899-1.454.727-2.907.727-3.995.363-.727-.363-1.454-.363-1.816-1.089-.724-.364-1.087-1.091-1.451-1.451-.363-.727-.363-1.091-.727-1.818.364-.363.364-1.086.364-1.813Z" fill="#CED6E2"/><g filter="url(#icons-empty_svg__e)"><path d="m421.201 276.174-70.428 38.116c-2.178 1.091-5.445.364-6.536-2.177l-35.212-68.611c-1.091-2.18-.363-5.448 2.177-6.535l91.484-48.286c2.18-1.086 5.448-.36 6.535 2.181l25.413 49.732-13.433 35.58Z" fill="#F2F6FA"/></g><path d="m434.271 241.322-19.605 10.166c-2.54 1.453-3.627 5.081-2.54 7.625l8.711 17.424" fill="#D5DAE6"/><path d="M385.623 231.883c1.091.363 1.815 1.09 2.905 1.453 1.09.364 1.813 1.091 2.904 2.178 1.09 1.09 1.813 1.817 2.54 2.904 1.091 1.09 1.818 2.18 2.541 3.631 1.09 1.454 1.454 3.631 1.454 5.081.363 1.817 0 3.267 0 5.084-.364 1.451-1.09 2.905-1.817 4.355-1.087 1.454-2.541 2.544-3.991 3.268-1.091.726-2.905 1.09-4.358 1.453-1.087.364-2.905.364-3.994 0-1.087-.363-2.542-.363-3.628-1.09l-2.904-1.45c-.727-.364-1.817-.727-2.544-1.091-.724-.363-1.813-.363-2.177.364l-4.718 1.814-2.541-5.445 4.718-3.267c.727-.728 1.814-.728 2.904-.728 1.09 0 1.814 0 2.904.364 1.09.364 1.814 1.09 2.541 1.453 1.09.364 1.817 1.087 3.267 1.451 1.091.363 1.818.363 3.267.727 1.091 0 2.178-.364 3.632-1.091 1.09-.723 2.54-1.813 2.54-3.627.364-.727 0-1.453 0-2.544-.363-.723-.363-1.45-1.09-2.541-.36-1.086-1.087-1.813-1.813-2.904-.364-.363-1.091-1.087-1.815-1.45-.363-.364-1.09-.727-1.454-1.09-.362-.364-.726-.364-1.089-1.091-.36-.36-.36-1.45 0-1.814l1.816-4.357Zm-33.761 25.049c.727-.363 1.09-.726 2.177-.363.727-.363 1.454 0 1.817 0 1.45.363 2.541 1.454 2.904 2.544.364.724.364 1.45.364 2.177v1.814c-.364 1.091-1.454 2.541-2.544 2.904-.724.364-1.451.364-2.178.364h-1.814c-1.453-.364-2.54-1.451-2.904-2.541-.363-.727-.363-1.454-.363-2.177-.364-.727 0-1.454 0-1.817.363-.724.727-1.087.727-1.814.36-.364 1.45-.364 1.814-1.091Z" fill="#CED6E2"/><path fill-rule="evenodd" clip-rule="evenodd" d="M118.073 228.745c.731 0 1.323.593 1.323 1.324v65.343c0 6.895 5.94 12.837 12.834 12.837h199.304c6.891 0 12.834-5.942 12.834-12.837V235.15a1.323 1.323 0 1 1 2.647 0v60.262c0 8.356-7.128 15.484-15.481 15.484H132.23c-8.357 0-15.481-7.128-15.481-15.484v-65.343c0-.731.593-1.324 1.324-1.324Z" fill="#1676EE"/><path d="M338.066 196.307h-68.248c-6.535 0-13.07 2.177-18.151 6.535l-18.152 14.52c-5.084 3.995-11.619 6.536-18.151 6.536h-77.69c-7.622 0-14.156 6.171-14.156 14.156 0 .727 0 1.453.363 2.181l14.157 74.419c1.09 6.898 7.261 12.343 14.157 12.343H318.1c7.263 0 13.071-5.081 14.158-11.98l19.968-102.373c1.087-7.625-3.994-14.887-11.98-15.974-.727-.363-1.454-.363-2.18-.363Z" fill="#fff"/><g filter="url(#icons-empty_svg__f)"><path d="M356.944 182.874h-81.318c-7.625 0-15.611 2.907-21.418 7.625l-21.783 17.787c-6.171 5.085-13.794 7.625-21.419 7.625h-93.297c-9.076 0-17.064 7.26-17.064 17.062 0 .727 0 1.814.363 2.541l17.064 90.396c1.451 8.349 8.349 14.883 17.061 14.883h197.851c8.349 0 15.611-6.171 17.065-14.52l23.596-123.794c1.451-9.076-4.721-18.152-14.157-19.605h-2.544Z" fill="url(#icons-empty_svg__g)"/></g><path d="M200.116 277.987c4.718 0 8.713-3.99 8.713-8.712 0-4.718-3.995-8.712-8.713-8.712-4.721 0-8.716 3.994-8.716 8.712 0 4.722 3.995 8.712 8.716 8.712ZM267.999 276.537c4.721 0 8.716-3.995 8.716-8.712 0-4.721-3.995-8.712-8.716-8.712-4.717 0-8.712 3.991-8.712 8.712 0 4.717 3.995 8.712 8.712 8.712ZM252.39 291.058h-4.717c-3.994-7.986-13.794-11.253-21.419-6.899-3.267 1.454-5.809 4.357-6.898 6.899h-4.718c3.994-10.53 15.974-15.975 26.136-11.98 5.448 2.177 9.439 6.535 11.616 11.98ZM389.978 370.198c-3.991 0-2.541.364-33.398-30.494-29.768 22.145-71.152.726-71.152-35.576 0-24.323 19.965-44.291 44.288-44.291 35.215 0 56.994 39.57 36.302 69.701l28.681 28.68c4.718 4.358 1.814 11.98-4.721 11.98Zm-59.899-96.201c-16.701 0-30.494 13.43-30.494 30.494 0 17.061 13.433 30.495 30.494 30.495 1.814 0 3.631 0 5.445-.363 1.817-.364 3.631-.728 5.085-1.455 1.813-.726 3.264-1.449 4.717-2.176 1.814-1.091 3.268-2.178 4.718-3.631a1553.77 1553.77 0 0 0 3.631-3.631c1.091-1.451 2.181-2.905 2.905-4.355.726-1.454 1.453-3.268 2.18-5.085.724-1.814 1.087-3.627 1.087-5.445 0-1.449.364-2.54.364-3.99.363-17.428-13.434-30.858-30.132-30.858Z" fill="#989FB0"/><path fill-rule="evenodd" clip-rule="evenodd" d="m198.612 244.449-19.602 10.526-.626-1.166 19.602-10.526.626 1.166ZM265.782 237.839l19.605 10.893-.643 1.157-19.605-10.893.643-1.157Z" fill="#989FB0"/>
<defs><filter id="icons-empty_svg__b" x="248.381" y="0" width="186.106" height="213.858" filterUnits="userSpaceOnUse" color-interpolation-filters="sRGB"><feFlood flood-opacity="0" result="BackgroundImageFix"/><feColorMatrix in="SourceAlpha" values="0 0 0 0 0 0 0 0 0 0 0 0 0 0 0 0 0 0 127 0" result="hardAlpha"/><feOffset dy="11"/><feGaussianBlur stdDeviation="11"/><feColorMatrix values="0 0 0 0 0.397708 0 0 0 0 0.47749 0 0 0 0 0.575 0 0 0 0.27 0"/><feBlend in2="BackgroundImageFix" result="effect1_dropShadow_159_4939"/><feBlend in="SourceGraphic" in2="effect1_dropShadow_159_4939" result="shape"/></filter><filter id="icons-empty_svg__c" x="0" y="41.183" width="180.598" height="165.482" filterUnits="userSpaceOnUse" color-interpolation-filters="sRGB"><feFlood flood-opacity="0" result="BackgroundImageFix"/><feColorMatrix in="SourceAlpha" values="0 0 0 0 0 0 0 0 0 0 0 0 0 0 0 0 0 0 127 0" result="hardAlpha"/><feOffset dy="11"/><feGaussianBlur stdDeviation="11"/><feColorMatrix values="0 0 0 0 0.397708 0 0 0 0 0.47749 0 0 0 0 0.575 0 0 0 0.27 0"/><feBlend in2="BackgroundImageFix" result="effect1_dropShadow_159_4939"/><feBlend in="SourceGraphic" in2="effect1_dropShadow_159_4939" result="shape"/></filter><filter id="icons-empty_svg__d" x="118.619" y="83.7" width="149.604" height="174.609" filterUnits="userSpaceOnUse" color-interpolation-filters="sRGB"><feFlood flood-opacity="0" result="BackgroundImageFix"/><feColorMatrix in="SourceAlpha" values="0 0 0 0 0 0 0 0 0 0 0 0 0 0 0 0 0 0 127 0" result="hardAlpha"/><feOffset dy="11"/><feGaussianBlur stdDeviation="11"/><feColorMatrix values="0 0 0 0 0.397708 0 0 0 0 0.47749 0 0 0 0 0.575 0 0 0 0.27 0"/><feBlend in2="BackgroundImageFix" result="effect1_dropShadow_159_4939"/><feBlend in="SourceGraphic" in2="effect1_dropShadow_159_4939" result="shape"/></filter><filter id="icons-empty_svg__e" x="286.534" y="177.193" width="170.101" height="170.588" filterUnits="userSpaceOnUse" color-interpolation-filters="sRGB"><feFlood flood-opacity="0" result="BackgroundImageFix"/><feColorMatrix in="SourceAlpha" values="0 0 0 0 0 0 0 0 0 0 0 0 0 0 0 0 0 0 127 0" result="hardAlpha"/><feOffset dy="11"/><feGaussianBlur stdDeviation="11"/><feColorMatrix values="0 0 0 0 0.397708 0 0 0 0 0.47749 0 0 0 0 0.575 0 0 0 0.27 0"/><feBlend in2="BackgroundImageFix" result="effect1_dropShadow_159_4939"/><feBlend in="SourceGraphic" in2="effect1_dropShadow_159_4939" result="shape"/></filter><filter id="icons-empty_svg__f" x="78.644" y="171.874" width="317.212" height="201.92" filterUnits="userSpaceOnUse" color-interpolation-filters="sRGB"><feFlood flood-opacity="0" result="BackgroundImageFix"/><feColorMatrix in="SourceAlpha" values="0 0 0 0 0 0 0 0 0 0 0 0 0 0 0 0 0 0 127 0" result="hardAlpha"/><feOffset dy="11"/><feGaussianBlur stdDeviation="11"/><feColorMatrix values="0 0 0 0 0.397708 0 0 0 0 0.47749 0 0 0 0 0.575 0 0 0 0.27 0"/><feBlend in2="BackgroundImageFix" result="effect1_dropShadow_159_4939"/><feBlend in="SourceGraphic" in2="effect1_dropShadow_159_4939" result="shape"/></filter><linearGradient id="icons-empty_svg__a" x1="231.337" y1="167.396" x2="231.337" y2="224.072" gradientUnits="userSpaceOnUse"><stop stop-color="#B0BACC"/><stop offset="1" stop-color="#969EAE"/></linearGradient><linearGradient id="icons-empty_svg__g" x1="237.16" y1="179.221" x2="237.16" y2="342.494" gradientUnits="userSpaceOnUse"><stop stop-color="#FDFEFF"/><stop offset="0.996" stop-color="#ECF0F5"/></linearGradient></defs></svg>